<svg width="16" height="16" viewBox="0 0 16 16" fill="none" xmlns="http://www.w3.org/2000/svg">
  <path d="M8 0C3.582 0 0 3.582 0 8c0 3.536 2.288 6.528 5.438 7.594.398.073.545-.173.545-.384 0-.189-.007-.693-.01-1.363-2.215.48-2.688-1.073-2.688-1.073-.363-.926-.888-1.174-.888-1.174-.725-.494.055-.485.055-.485.803.056 1.224.825 1.224.825.714 1.222 1.872.869 2.32.664.073-.517.28-.869.507-1.067-1.77-.2-3.634-.885-3.634-3.942 0-.87.31-1.582.823-2.14-.083-.2-.357-1.013.078-2.109 0 0 .67-.215 2.2.82A7.574 7.574 0 018 3.39c.682.003 1.37.092 2.006.268 1.53-1.035 2.2-.82 2.2-.82.435 1.096.162 1.91.079 2.109.513.558.823 1.27.823 2.14 0 3.067-1.866 3.742-3.64 3.942.28.24.527.715.527 1.44 0 1.04-.01 1.88-.01 2.13 0 .213.146.459.548.382A8.005 8.005 0 0016 8c0-4.418-3.582-8-8-8z" fill="white"/>
</svg>
